<svg xmlns="http://www.w3.org/2000/svg" viewBox="0 0 512 512" width="30px" height="30px"><path fill="#8A4581" d="M443.3,129.4C411.4,93,363.7,70.5,317,60.7c-47-9.8-97.7-8-142,11.7c-73,32.5-131.8,108.2-133.5,189c0.2,0.8,0.3,1.7,0,2.7c0,1.5,0,3,0,4.4c-0.2,1.1-0.4,2.2-0.5,3.3c0.1,1,0.2,1.9,0.3,2.7c0.2,4.2,0.2,8.4,0.6,12.6c0.6,7.8,3,15.5,2.3,23.2c0.3,2.1,0.6,4.2,0.9,6.3c0,0.3,0.1,0.5,0.2,0.7c0.7,4.4,1.4,8.7,2.2,13.1c1.6,9.1,3.6,18.1,6.1,26.9c5,17.4,11.6,34.3,20.6,50.1c17,30,41.4,56,72.9,70.9c21.6,10.2,44.8,14.5,68.7,15.1c26,0.6,52.2-2.2,77.4-8.9c49.8-13.2,96.1-40.2,129.3-79.9C483.7,330.9,511.9,207.7,443.3,129.4z M342.7,235.8c-4,5.1-8.6,9.7-13.2,14.2c-4.6,4.5-9.4,8.9-14.1,13.3c-4.4,4.2-8.5,9.5-13.4,13.2c-4.7,3.6-9,8-13.2,12.2c-2.6,2.5-5.2,5.1-7.7,7.8c-0.9,1-1.9,2-2.7,3c-0.1,0.1-0.2,0.2-0.3,0.4c-0.3,0.9-0.8,1.6-1.5,2.2c0.1,1.7,0.1,3.4,0.2,5.1c1.9,16,1.6,32.3,1.6,48.5c0.5,5.4,0.5,10.8,0.1,16.1c0,1.6-0.1,3.2-0.1,4.8c0,0.5-0.1,1-0.2,1.5c7.4-0.2,14.8-0.5,22.2-1c4.6-0.3,9.3-0.6,13.9-1.3c0.7-0.1,1.4-0.2,2.1-0.4c0.1,0,0.4-0.1,0.7-0.2c2.8-3.5,9.5-1.8,10.6,3c4.5,7.7-0.3,14.4-8.7,16.2c-3.8,0.8-7.6,0.9-11.4,0.8c-5.7-0.1-11.3,0.7-17,1.2c-15.9,1.4-31.7,2.6-47.7,2.6c-16.4,0-32.7-0.5-49.1-0.5c-0.5,0-0.9,0-1.4-0.1c-0.7,0.5-1.6,0.8-2.6,0.9c-3,0.2-6.6-2.3-6.5-5.6c0-1.8,0.3-3.5,0.8-5.2c-3.1-4,0.8-10.9,6.3-9.6c0.4-0.1,0.9-0.2,1.4-0.2c9.9,0,19.7,0,29.6,0c0,0,0-0.1,0-0.1v-8.8c-0.2-28.5-8.2-57.5-4.9-85.9c-6.1-10.7-12.6-21.2-19.4-31.5c-8.7-13.1-19.6-24.5-28.6-37.3c-4.3-6.2-8.8-13.1-14.5-18.1c-4.7-4.1-9.5-8-13-13.2c-0.1-0.2-0.3-0.4-0.4-0.7c-10.5-0.3-21-0.5-31.5,0c-3.1,0.1-6.5-2.2-6.5-5.6v-5c-0.7-1.9-0.3-3.7,0.6-5.9c0.3-0.8,0.8-1.5,1.4-2c0.8-1.4,2.4-2.5,4.6-2.5c22.4-0.1,44.8-2,67.2-2.2c20.2-0.2,41.1,2.5,61-1.9c6.1-1.4,10,5.9,7.1,9.6c0.8,8.4-6.6,12.5-14.8,13.3c-10.2,1-20.5,1.6-30.7,2.3c0,0.1-0.1,0.3-0.1,0.4c8.9,10.1,18.5,19.4,26.9,30c6.1,7.7,11.7,15.9,17.1,24c2.7,4.1,5.3,8.1,7.8,12.3c1.4,2.4,2.8,4.7,4.1,7.2c0.6,1.2,1.4,3.8,2.2,4.7c0.2,0.2,0.4,0.4,0.5,0.7c6.1-5.4,12.9-10.2,19.8-14.8c1.7-2.1,3.6-4.1,5.3-6c6.7-7.3,14-14.2,20.7-21.6c-12.8-0.4-25.6-0.8-38.5-0.2c-3.1,0.1-6.5-2.2-6.5-5.6v-5c-0.7-1.9-0.3-3.7,0.6-5.9c0.3-0.8,0.8-1.5,1.4-2c0.8-1.4,2.4-2.5,4.6-2.5c22.4-0.1,44.8-2,67.2-2.2c20.2-0.2,41.1,2.5,61-1.9c6.1-1.4,10,5.9,7.1,9.6c0.8,8.4-6.6,12.5-14.8,13.3c-9.7,1-19.5,1.5-29.3,2.2c-0.4,0.4-0.8,0.8-1.4,1.2C349.6,225.2,346.5,231,342.7,235.8z M382.6,386.5c-6,7.3-15.6,0.7-23.2,2.2c-3,0.6-6.5-1.8-6.2-5.2c0.7-6,0.7-12,1.3-17.9c-1.1-2.6-0.3-6.3,3.3-7.2c8-2.1,16.4-1.1,24.6-0.1c3,0.4,4.7,2.4,4.8,5.3C387.7,370.8,387.4,380.7,382.6,386.5z M412,267.3c-1.6,5.2-3.2,10.4-3.9,15.8c-5.7,20.9-12.8,41.4-17.2,62.5c-2,3.2-4.7,5.7-8.8,6.2c-0.7,0.1-1.5,0.2-2.2,0.2c-5.7-0.2-11.4-0.5-17.1-1.2c-0.2-0.1-0.4-0.3-0.6-0.5c-0.3,0.1-0.7,0.2-1,0.3c-1.3-0.2-2.7-0.4-4-0.6c-1.3-0.8-2.2-2.3-2-4.4l0.2-2c0-0.2,0-0.3,0.1-0.4c0.2-1.7,0.4-3.3,0.6-5c-0.9-3.8-0.8-7.5-0.2-11.4c0-1.1,0-2.3,0-3.4c0.2-7.9,0.4-15.9,0.6-23.8c0.4-16.3-2.7-32.7-0.9-49c0.3-2.4,1.8-3.8,3.5-4.4c8,1.8,16.8,1,24.7,0.6c0.9,0,1.7-0.1,2.6-0.1c7.5,0.6,15,1.3,22.3,2.4c1.2,0.7,2.3,1.6,3.1,2.7c1.1,1.4,1.8,2.9,2.4,4.4C413.5,260,412.8,263.7,412,267.3z"/><path d="M437.6,109.2c-34.8-32.5-82.3-52.1-128.7-60.3c-47.1-8.3-97.4-4.5-141,15.7C92.5,99.6,32.7,178.2,31.5,262.4c-1.8,6.2-0.2,13.6-0.1,19.9c0.1,4.4,0.6,8.8,1.1,13.2c0.1,0.4,0.1,0.9,0.2,1.3c0,0.3,0,0.6,0,0.9c0.3,4.3,0.7,8.5,1.2,12.8c0,0.1,0,0.2,0,0.2c-0.2,1.3,0,2.3,0.5,3.2c1.1,8.1,2.6,16.1,4.1,24.1c2.2,11.3,5.1,22.4,8.6,33.2c7,21.2,17,41.5,29.8,59.8c25.6,36.4,63.8,62.1,107.9,69.7c25,4.3,51.4,3.5,76.5,0.1c25.5-3.4,50.6-10.3,74.2-20.5c47.2-20.3,87.4-54.2,114.7-97.8c26.3-42.2,42.7-91.8,42.9-141.7C493.4,190.9,474.2,143.4,437.6,109.2z M422.2,404.6c-33.2,39.8-79.5,66.7-129.3,79.9c-25.2,6.7-51.4,9.5-77.4,8.9c-23.8-0.5-47-4.8-68.7-15.1C115.4,463.4,91,437.4,74,407.4c-8.9-15.7-15.6-32.7-20.6-50.1c-2.6-8.9-4.6-17.9-6.1-26.9c-0.8-4.4-1.5-8.7-2.2-13.1c-0.1-0.2-0.2-0.4-0.2-0.7c-0.2-2.1-0.5-4.2-0.9-6.3c0.7-7.7-1.6-15.5-2.3-23.2c-0.3-4.2-0.4-8.4-0.6-12.6c0-0.8-0.2-1.8-0.3-2.7c0.2-1.1,0.3-2.2,0.5-3.3c0-1.5,0-3,0-4.4c0.3-1,0.3-1.9,0-2.7c1.7-80.8,60.5-156.5,133.5-189c44.3-19.7,95-21.5,142-11.7c46.7,9.8,94.4,32.3,126.3,68.7C511.9,207.7,483.7,330.9,422.2,404.6z"/><path fill="#D6E5E5" d="M393.1,195.4c-19.9,4.4-40.8,1.7-61,1.9c-22.4,0.2-44.8,2.1-67.2,2.2c-2.3,0-3.8,1-4.6,2.5c-0.6,0.5-1.1,1.1-1.4,2c-0.9,2.1-1.3,3.9-0.6,5.9v5c0,3.4,3.4,5.7,6.5,5.6c12.8-0.6,25.7-0.2,38.5,0.2c-6.8,7.3-14,14.3-20.7,21.6c-1.7,1.8-3.5,3.8-5.3,6c-6.9,4.6-13.7,9.3-19.8,14.8c-0.2-0.2-0.3-0.5-0.5-0.7c-0.9-0.9-1.6-3.5-2.2-4.7c-1.3-2.4-2.7-4.8-4.1-7.2c-2.5-4.2-5.1-8.3-7.8-12.3c-5.4-8.2-11-16.4-17.1-24c-8.3-10.5-18-19.9-26.9-30c0-0.1,0.1-0.3,0.1-0.4c10.2-0.7,20.5-1.2,30.7-2.3c8.2-0.8,15.6-5,14.8-13.3c2.9-3.7-1-11-7.1-9.6c-19.9,4.4-40.8,1.7-61,1.9c-22.4,0.2-44.8,2.1-67.2,2.2c-2.3,0-3.8,1-4.6,2.5c-0.6,0.5-1.1,1.1-1.4,2c-0.9,2.1-1.3,3.9-0.6,5.9v5c0,3.4,3.4,5.7,6.5,5.6c10.5-0.5,21-0.3,31.5,0c0.1,0.2,0.2,0.5,0.4,0.7c3.5,5.2,8.3,9.1,13,13.2c5.7,5,10.2,11.9,14.5,18.1c8.9,12.9,19.9,24.3,28.6,37.3c6.8,10.2,13.3,20.8,19.4,31.5c-3.3,28.4,4.7,57.4,4.9,85.9v8.8c0,0,0,0.1,0,0.1c-9.9,0-19.7,0-29.6,0c-0.5,0-1,0.1-1.4,0.2c-5.5-1.3-9.4,5.6-6.3,9.6c-0.5,1.7-0.7,3.4-0.8,5.2c-0.1,3.3,3.5,5.8,6.5,5.6c1-0.1,1.9-0.4,2.6-0.9c0.5,0.1,0.9,0.1,1.4,0.1c16.4,0,32.7,0.5,49.1,0.5c16,0,31.8-1.2,47.7-2.6c5.6-0.5,11.3-1.2,17-1.2c3.8,0,7.7,0,11.4-0.8c8.5-1.7,13.3-8.5,8.7-16.2c-1.1-4.8-7.8-6.5-10.6-3c-0.3,0.1-0.6,0.1-0.7,0.2c-0.7,0.1-1.4,0.2-2.1,0.4c-4.6,0.7-9.2,1-13.9,1.3c-7.4,0.5-14.8,0.8-22.2,1c0.1-0.5,0.2-0.9,0.2-1.5c0-1.6,0.1-3.2,0.1-4.8c0.4-5.3,0.4-10.7-0.1-16.1c0-16.2,0.3-32.5-1.6-48.5c-0.1-1.7-0.1-3.4-0.2-5.1c0.7-0.6,1.2-1.4,1.5-2.2c0.1-0.1,0.2-0.2,0.3-0.4c0.9-1,1.8-2,2.7-3c2.5-2.7,5.1-5.2,7.7-7.8c4.3-4.2,8.5-8.5,13.2-12.2c4.8-3.7,8.9-9,13.4-13.2c4.7-4.4,9.4-8.8,14.1-13.3c4.6-4.5,9.2-9.1,13.2-14.2c3.8-4.9,6.9-10.7,12.1-14.2c0.5-0.4,1-0.8,1.4-1.2c9.7-0.6,19.6-1.2,29.3-2.2c8.2-0.8,15.6-5,14.8-13.3C403.1,201.3,399.3,194,393.1,195.4z"/><path fill="#D6E5E5" d="M411.8 252c-.9-1.1-1.9-2-3.1-2.7-7.4-1.1-14.9-1.8-22.3-2.4-.9 0-1.7 0-2.6.1-7.9.4-16.7 1.2-24.7-.6-1.8.6-3.3 2-3.5 4.4-1.8 16.3 1.2 32.6.9 49-.2 7.9-.4 15.9-.6 23.8 0 1.1 0 2.3 0 3.4-.6 3.8-.7 7.5.2 11.4-.1 1.7-.3 3.3-.6 5 0 .1-.1.3-.1.4l-.2 2c-.3 2.1.6 3.5 2 4.4 1.3.2 2.7.4 4 .6.3-.1.7-.2 1-.3.2.2.4.4.6.5 5.6.7 11.4 1 17.1 1.2.7 0 1.5-.1 2.2-.2 4.1-.5 6.9-3.1 8.8-6.2 4.5-21.2 11.6-41.7 17.2-62.5.7-5.4 2.3-10.6 3.9-15.8.8-3.6 1.5-7.3 2.2-10.9C413.6 254.8 412.9 253.4 411.8 252zM387.3 363.6c-.2-2.9-1.9-4.9-4.8-5.3-8.1-1-16.5-2-24.6.1-3.6.9-4.5 4.6-3.3 7.2-.6 6-.6 12-1.3 17.9-.4 3.3 3.1 5.8 6.2 5.2 7.5-1.5 17.1 5.2 23.2-2.2C387.4 380.7 387.7 370.8 387.3 363.6z"/></svg>